{"title":"Space Dandy 02 The Search for the Phantom Space Ramen, Baby (DUB","uid":9469295,"size":964419554,"categoryP":"video","categoryS":"hd___tv_shows","magnet":"?xt=urn:btih:cfa6c3128bfeb127ffa513fd03ade549ac662c96&amp;dn=Space+Dandy+02+The+Search+for+the+Phantom+Space+Ramen%2C+Baby+%28DUB&amp;tr=udp%3A%2F%2Ftracker.openbittorrent.com%3A80&amp;tr=udp%3A%2F%2Fopen.demonii.com%3A1337&amp;tr=udp%3A%2F%2Ftracker.coppersurfer.tk%3A6969&amp;tr=udp%3A%2F%2Fexodus.desync.com%3A6969","seeders":6,"leechers":0,"uploader":"frostyon420","files":-1,"time":1389521193,"description":"ALWAYS HD never RE-ENCODED! over 400 torrents and counting;)\n\nJoin me on the NEW Superbay for updates on my torrents or to let me know if I need to fix something :)\n\nALSO!!!!! if u have a show request I might consider uploading it, if I can access the content online.\n &lt;a href=&quot;\nhttps://forum.suprbay.org/showthread.php?tid=369&quot; rel=&quot;nofollow&quot; target=&quot;_NEW&quot;&gt;\nhttps://forum.suprbay.org/showthread.php?tid=369&lt;/a&gt;\n\nADD my RSS feed to your torrent client for my latest torrents &lt;a href=&quot;\nhttp://rss.thepiratebay.sx/user/178e8d96586bbd0dcb5c2729df9a5c4d&quot; rel=&quot;nofollow&quot; target=&quot;_NEW&quot;&gt;\nhttp://rss.thepiratebay.sx/user/178e8d96586bbd0dcb5c2729df9a5c4d&lt;/a&gt;\n\nNOW Seedbox supported!!! :)\n\nIF YOU HAVE ANY HOT NEW ITUNES CONTENT AND YOU WANT TO CONTRIBUTE TO TPB PLEASE PM ME ON SUPERBAY... REMOVE YOUR DRM!\n\n[Itunes-rip]\n\n\nComplete name                            : C:UsersPhr0stYDesktopSpace Dandy 02 The Search for the Phantom Space Ramen, Baby (DUB) (1920x1080) [Phr0stY].mkv\nFormat                                   : Matroska\nFormat version                           : Version 4 / Version 2\nFile size                                : 920 MiB\nDuration                                 : 22mn 52s\nOverall bit rate                         : 5 623 Kbps\nEncoded date                             : UTC 2014-01-12 08:57:37\nWriting application                      : mkvmerge v6.5.0 ('Isn't she lovely') built on Oct 20 2013 12:50:05\nWriting library                          : libebml v1.3.0 + libmatroska v1.4.1\n\nVideo\nID                                       : 1\nFormat                                   : AVC\nFormat/Info                              : Advanced Video Codec\nFormat profile                           : &lt;a class=&quot;__cf_email__&quot; href=&quot;/cdn-cgi/l/email-protection&quot; data-cfemail=&quot;6d25040a052d2159435d&quot;&gt;[email&amp;#160;protected]&lt;/a&gt;&lt;script cf-hash='f9e31' type=&quot;text/javascript&quot;&gt;\n/* &lt;![CDATA[ */!function(){try{var t=&quot;currentScript&quot;in document?document.currentScript:function(){for(var t=document.getElementsByTagName(&quot;script&quot;),e=t.length;e--;)if(t[e].getAttribute(&quot;cf-hash&quot;))return t[e]}();if(t&amp;&amp;t.previousSibling){var e,r,n,i,c=t.previousSibling,a=c.getAttribute(&quot;data-cfemail&quot;);if(a){for(e=&quot;&quot;,r=parseInt(a.substr(0,2),16),n=2;a.length-n;n+=2)i=parseInt(a.substr(n,2),16)^r,e+=String.fromCharCode(i);e=document.createTextNode(e),c.parentNode.replaceChild(e,c)}}}catch(u){}}();/* ]]&gt; */&lt;/script&gt;\nFormat settings, CABAC                   : Yes\nFormat settings, ReFrames                : 4 frames\nCodec ID                                 : V_MPEG4/ISO/AVC\nDuration                                 : 22mn 52s\nBit rate                                 : 5 127 Kbps\nWidth                                    : 1 920 pixels\nHeight                                   : 1 080 pixels\nDisplay aspect ratio                     : 16:9\nFrame rate mode                          : Constant\nFrame rate                               : 23.976 fps\nColor space                              : YUV\nChroma subsampling                       : 4:2:0\nBit depth                                : 8 bits\nScan type                                : Progressive\nBits/(Pixel*Frame)                       : 0.103\nStream size                              : 839 MiB (91%)\nLanguage                                 : English\nDefault                                  : Yes\nForced                                   : No\nColor primaries                          : BT.709\nTransfer characteristics                 : BT.709\nMatrix coefficients                      : BT.709\n\nAudio\nID                                       : 2\nFormat                                   : AC-3\nFormat/Info                              : Audio Coding 3\nMode extension                           : CM (complete main)\nFormat settings, Endianness              : Big\nCodec ID                                 : A_AC3\nDuration                                 : 22mn 52s\nBit rate mode                            : Constant\nBit rate                                 : 384 Kbps\nChannel count                            : 6 channels\nChannel positions                        : Front: L C R, Side: L R, LFE\nSampling rate                            : 48.0 KHz\nBit depth                                : 16 bits\nCompression mode                         : Lossy\nStream size                              : 62.8 MiB (7%)\nLanguage                                 : English\nDefault                                  : Yes\nForced                                   : No","torrent":{"xt":"urn:btih:cfa6c3128bfeb127ffa513fd03ade549ac662c96","amp;dn":"Space+Dandy+02+The+Search+for+the+Phantom+Space+Ramen%2C+Baby+%28DUB","amp;tr":["udp%3A%2F%2Ftracker.openbittorrent.com%3A80","udp%3A%2F%2Fopen.demonii.com%3A1337","udp%3A%2F%2Ftracker.coppersurfer.tk%3A6969","udp%3A%2F%2Fexodus.desync.com%3A6969"],"infoHash":"cfa6c3128bfeb127ffa513fd03ade549ac662c96","infoHashBuffer":{"type":"Buffer","data":[207,166,195,18,139,254,177,39,255,165,19,253,3,173,229,73,172,102,44,150]},"announce":[],"urlList":[]}}